<svg version="1.1" id="Layer_1" xmlns:x="ns_extend;" xmlns:i="ns_ai;" xmlns:graph="ns_graphs;" xmlns="http://www.w3.org/2000/svg" xmlns:xlink="http://www.w3.org/1999/xlink" x="0px" y="0px" viewBox="0 0 75.5 71.9" style="enable-background:new 0 0 75.5 71.9;" xml:space="preserve">
 <style type="text/css">
  .st0{fill:#00C3A5;}
 </style>
 <metadata>
  <sfw xmlns="ns_sfw;">
   <slices>
   </slices>
   <sliceSourceBounds bottomLeftOrigin="true" height="71.9" width="75.5" x="2922.4" y="-80.3">
   </sliceSourceBounds>
  </sfw>
 </metadata>
 <g>
  <path class="st0" d="M41.9,58.1c1.8-4.5,6.9-10.7,12.2-13.9l11.6,19.1l-11.8,8.6L41.9,58.1L41.9,58.1z M24.8,71.9L8.5,61.4
		C20.9,38.4,43.9,22,71,18.9l4.5,14C53.2,37.3,34.6,52,24.8,71.9z M28.4,24.5L30.4,0h14.6l1.9,22.1c-8.4,2.9-13.3,5.2-19,8.7
		c-4.2,2.6-8,5.6-11.4,9L0,32.8l4.5-13.9L28.4,24.5z">
  </path>
 </g>
</svg>